<?xml version="1.0" encoding="utf-8"?>
<svg width="133.00012px" height="133px" viewBox="0 0 133.00012 133" version="1.1" xmlns:xlink="http://www.w3.org/1999/xlink" xmlns="http://www.w3.org/2000/svg">
  <g id="inset_icon" transform="translate(2.5 2.5)">
    <path d="M7.999 0L120.001 0Q120.197 0 120.393 0.00963514Q120.59 0.0192703 120.785 0.0385174Q120.98 0.0577644 121.175 0.0865771Q121.369 0.11539 121.562 0.153699Q121.754 0.192007 121.945 0.23972Q122.135 0.287433 122.323 0.344434Q122.511 0.401436 122.696 0.467589Q122.881 0.533742 123.062 0.608888Q123.243 0.684033 123.421 0.76799Q123.599 0.851946 123.772 0.944512Q123.945 1.03708 124.113 1.13803Q124.282 1.23898 124.445 1.34807Q124.608 1.45717 124.766 1.57414Q124.924 1.69112 125.076 1.81569Q125.227 1.94026 125.373 2.07213Q125.518 2.204 125.657 2.34285Q125.796 2.4817 125.928 2.6272Q126.06 2.7727 126.184 2.92449Q126.309 3.07628 126.426 3.234Q126.543 3.39172 126.652 3.55499Q126.761 3.71826 126.862 3.88669Q126.963 4.05512 127.055 4.2283Q127.148 4.40148 127.232 4.57899Q127.316 4.7565 127.391 4.93791Q127.466 5.11933 127.532 5.30422Q127.599 5.4891 127.656 5.67701Q127.713 5.86492 127.76 6.0554Q127.808 6.24588 127.846 6.43847Q127.885 6.63106 127.913 6.8253Q127.942 7.01954 127.961 7.21496Q127.981 7.41038 127.99 7.60651Q128 7.80264 128 7.999L128 120.001Q128 120.197 127.99 120.393Q127.981 120.59 127.961 120.785Q127.942 120.98 127.913 121.175Q127.885 121.369 127.846 121.562Q127.808 121.754 127.76 121.945Q127.713 122.135 127.656 122.323Q127.599 122.511 127.532 122.696Q127.466 122.881 127.391 123.062Q127.316 123.243 127.232 123.421Q127.148 123.599 127.055 123.772Q126.963 123.945 126.862 124.113Q126.761 124.282 126.652 124.445Q126.543 124.608 126.426 124.766Q126.309 124.924 126.184 125.076Q126.06 125.227 125.928 125.373Q125.796 125.518 125.657 125.657Q125.518 125.796 125.373 125.928Q125.227 126.06 125.076 126.184Q124.924 126.309 124.766 126.426Q124.608 126.543 124.445 126.652Q124.282 126.761 124.113 126.862Q123.945 126.963 123.772 127.055Q123.599 127.148 123.421 127.232Q123.243 127.316 123.062 127.391Q122.881 127.466 122.696 127.532Q122.511 127.599 122.323 127.656Q122.135 127.713 121.945 127.76Q121.754 127.808 121.562 127.846Q121.369 127.885 121.175 127.913Q120.98 127.942 120.785 127.961Q120.59 127.981 120.393 127.99Q120.197 128 120.001 128L7.999 128Q7.80264 128 7.60651 127.99Q7.41038 127.981 7.21496 127.961Q7.01954 127.942 6.8253 127.913Q6.63106 127.885 6.43847 127.846Q6.24588 127.808 6.0554 127.76Q5.86492 127.713 5.67701 127.656Q5.4891 127.599 5.30422 127.532Q5.11933 127.466 4.93791 127.391Q4.7565 127.316 4.57899 127.232Q4.40148 127.148 4.2283 127.055Q4.05512 126.963 3.88669 126.862Q3.71826 126.761 3.55499 126.652Q3.39172 126.543 3.234 126.426Q3.07628 126.309 2.92449 126.184Q2.7727 126.06 2.6272 125.928Q2.4817 125.796 2.34285 125.657Q2.204 125.518 2.07213 125.373Q1.94026 125.227 1.81569 125.076Q1.69112 124.924 1.57414 124.766Q1.45717 124.608 1.34807 124.445Q1.23898 124.282 1.13803 124.113Q1.03708 123.945 0.944512 123.772Q0.851946 123.599 0.76799 123.421Q0.684033 123.243 0.608888 123.062Q0.533742 122.881 0.467589 122.696Q0.401436 122.511 0.344434 122.323Q0.287433 122.135 0.23972 121.945Q0.192007 121.754 0.153699 121.562Q0.11539 121.369 0.0865771 121.175Q0.0577644 120.98 0.0385174 120.785Q0.0192703 120.59 0.00963514 120.393Q0 120.197 0 120.001L0 7.999Q0 7.80264 0.00963514 7.60651Q0.0192703 7.41038 0.0385174 7.21496Q0.0577644 7.01954 0.0865771 6.8253Q0.11539 6.63106 0.153699 6.43847Q0.192007 6.24588 0.23972 6.0554Q0.287433 5.86492 0.344434 5.67701Q0.401436 5.4891 0.467589 5.30422Q0.533742 5.11933 0.608888 4.93791Q0.684033 4.7565 0.76799 4.57899Q0.851946 4.40148 0.944512 4.2283Q1.03708 4.05512 1.13803 3.88669Q1.23898 3.71826 1.34807 3.55499Q1.45717 3.39172 1.57414 3.234Q1.69112 3.07628 1.81569 2.92449Q1.94026 2.7727 2.07213 2.6272Q2.204 2.4817 2.34285 2.34285Q2.4817 2.204 2.6272 2.07213Q2.7727 1.94026 2.92449 1.81569Q3.07628 1.69112 3.234 1.57414Q3.39172 1.45717 3.55499 1.34807Q3.71826 1.23898 3.88669 1.13803Q4.05512 1.03708 4.2283 0.944512Q4.40148 0.851946 4.57899 0.76799Q4.7565 0.684033 4.93791 0.608888Q5.11933 0.533742 5.30422 0.467589Q5.4891 0.401436 5.67701 0.344434Q5.86492 0.287433 6.0554 0.23972Q6.24588 0.192007 6.43847 0.153699Q6.63106 0.11539 6.8253 0.0865771Q7.01954 0.0577644 7.21496 0.0385174Q7.41038 0.0192703 7.60651 0.00963514Q7.80264 0 7.999 0L7.999 0Z" id="Rectangle-4" fill="none" fill-rule="evenodd" stroke="#FFFFFF" stroke-width="5" />
    <path d="M0.00012207 36L128 36" id="Line" fill="none" fill-rule="evenodd" stroke="#FFFFFF" stroke-width="5" stroke-linecap="square" />
    <g id="31" fill="#FFFFFF" transform="translate(29 40)">
      <path d="M12.5341 60.8636Q16.0455 62.4091 20.5455 62.4091Q25.0682 62.4091 28.6136 60.6818Q32.1591 58.9545 34.2159 55.9432Q36.2727 52.9318 36.2727 49.1364Q36.2727 44.7045 33.7955 41.6932Q31.3182 38.6818 26.9091 37.9545L26.9091 37.5909Q30.4318 36.5227 32.4886 33.75Q34.5455 30.9773 34.5455 27.0455Q34.5455 23.75 32.8864 20.9091Q31.2273 18.0682 28.1364 16.3295Q25.0455 14.5909 20.7273 14.5909Q16.7045 14.5909 13.3523 16.1364Q10 17.6818 7.93182 20.4432Q5.86364 23.2045 5.72727 26.8636L11.1818 26.8636Q11.2955 24.5455 12.6364 22.8977Q13.9773 21.25 16.1023 20.375Q18.2273 19.5 20.6364 19.5Q24.5 19.5 26.7955 21.6477Q29.0909 23.7955 29.0909 27.3182Q29.0909 31 26.4773 33.2045Q23.8636 35.4091 19.7273 35.4091L16 35.4091L16 40.4091L19.7273 40.4091Q25.0227 40.4091 27.875 42.8409Q30.7273 45.2727 30.7273 49.1364Q30.7273 52.8409 27.8295 55.125Q24.9318 57.4091 20.4545 57.4091Q16.4091 57.4091 13.5568 55.4545Q10.7045 53.5 10.4545 50.1364L4.72727 50.1364Q4.90909 53.7955 6.96591 56.5568Q9.02273 59.3182 12.5341 60.8636ZM61.9091 61.7727L61.9091 15.2273L56.2727 15.2273L44.6364 22.9545L44.6364 28.6818L56 21.1364L56.2727 21.1364L56.2727 61.7727L61.9091 61.7727Z" />
    </g>
    <path d="M7.999 0L120.001 0Q120.197 0 120.393 0.00963514Q120.59 0.0192703 120.785 0.0385174Q120.98 0.0577644 121.175 0.0865771Q121.369 0.11539 121.562 0.153699Q121.754 0.192007 121.945 0.23972Q122.135 0.287433 122.323 0.344434Q122.511 0.401436 122.696 0.467589Q122.881 0.533742 123.062 0.608888Q123.243 0.684033 123.421 0.76799Q123.599 0.851946 123.772 0.944512Q123.945 1.03708 124.113 1.13803Q124.282 1.23898 124.445 1.34807Q124.608 1.45717 124.766 1.57414Q124.924 1.69112 125.076 1.81569Q125.227 1.94026 125.373 2.07213Q125.518 2.204 125.657 2.34285Q125.796 2.4817 125.928 2.6272Q126.06 2.7727 126.184 2.92449Q126.309 3.07628 126.426 3.234Q126.543 3.39172 126.652 3.55499Q126.761 3.71826 126.862 3.88669Q126.963 4.05512 127.055 4.2283Q127.148 4.40148 127.232 4.57899Q127.316 4.7565 127.391 4.93791Q127.466 5.11933 127.532 5.30422Q127.599 5.4891 127.656 5.67701Q127.713 5.86492 127.76 6.0554Q127.808 6.24588 127.846 6.43847Q127.885 6.63106 127.913 6.8253Q127.942 7.01954 127.961 7.21496Q127.981 7.41038 127.99 7.60651Q128 7.80264 128 7.999L128 29.001Q128 29.1974 127.99 29.3935Q127.981 29.5896 127.961 29.785Q127.942 29.9805 127.913 30.1747Q127.885 30.3689 127.846 30.5615Q127.808 30.7541 127.76 30.9446Q127.713 31.1351 127.656 31.323Q127.599 31.5109 127.532 31.6958Q127.466 31.8807 127.391 32.0621Q127.316 32.2435 127.232 32.421Q127.148 32.5985 127.055 32.7717Q126.963 32.9449 126.862 33.1133Q126.761 33.2817 126.652 33.445Q126.543 33.6083 126.426 33.766Q126.309 33.9237 126.184 34.0755Q126.06 34.2273 125.928 34.3728Q125.796 34.5183 125.657 34.6571Q125.518 34.796 125.373 34.9279Q125.227 35.0597 125.076 35.1843Q124.924 35.3089 124.766 35.4259Q124.608 35.5428 124.445 35.6519Q124.282 35.761 124.113 35.862Q123.945 35.9629 123.772 36.0555Q123.599 36.1481 123.421 36.232Q123.243 36.316 123.062 36.3911Q122.881 36.4663 122.696 36.5324Q122.511 36.5986 122.323 36.6556Q122.135 36.7126 121.945 36.7603Q121.754 36.808 121.562 36.8463Q121.369 36.8846 121.175 36.9134Q120.98 36.9422 120.785 36.9615Q120.59 36.9807 120.393 36.9904Q120.197 37 120.001 37L7.999 37Q7.80264 37 7.60651 36.9904Q7.41038 36.9807 7.21496 36.9615Q7.01954 36.9422 6.8253 36.9134Q6.63106 36.8846 6.43847 36.8463Q6.24588 36.808 6.0554 36.7603Q5.86492 36.7126 5.67701 36.6556Q5.4891 36.5986 5.30422 36.5324Q5.11933 36.4663 4.93791 36.3911Q4.7565 36.316 4.57899 36.232Q4.40148 36.1481 4.2283 36.0555Q4.05512 35.9629 3.88669 35.862Q3.71826 35.761 3.55499 35.6519Q3.39172 35.5428 3.234 35.4259Q3.07628 35.3089 2.92449 35.1843Q2.7727 35.0597 2.6272 34.9279Q2.4817 34.796 2.34285 34.6571Q2.204 34.5183 2.07213 34.3728Q1.94026 34.2273 1.81569 34.0755Q1.69112 33.9237 1.57414 33.766Q1.45717 33.6083 1.34807 33.445Q1.23898 33.2817 1.13803 33.1133Q1.03708 32.9449 0.944512 32.7717Q0.851946 32.5985 0.76799 32.421Q0.684033 32.2435 0.608888 32.0621Q0.533742 31.8807 0.467589 31.6958Q0.401436 31.5109 0.344434 31.323Q0.287433 31.1351 0.23972 30.9446Q0.192007 30.7541 0.153699 30.5615Q0.11539 30.3689 0.0865771 30.1747Q0.0577644 29.9805 0.0385174 29.785Q0.0192703 29.5896 0.00963514 29.3935Q0 29.1974 0 29.001L0 7.999Q0 7.80264 0.00963514 7.60651Q0.0192703 7.41038 0.0385174 7.21496Q0.0577644 7.01954 0.0865771 6.8253Q0.11539 6.63106 0.153699 6.43847Q0.192007 6.24588 0.23972 6.0554Q0.287433 5.86492 0.344434 5.67701Q0.401436 5.4891 0.467589 5.30422Q0.533742 5.11933 0.608888 4.93791Q0.684033 4.7565 0.76799 4.57899Q0.851946 4.40148 0.944512 4.2283Q1.03708 4.05512 1.13803 3.88669Q1.23898 3.71826 1.34807 3.55499Q1.45717 3.39172 1.57414 3.234Q1.69112 3.07628 1.81569 2.92449Q1.94026 2.7727 2.07213 2.6272Q2.204 2.4817 2.34285 2.34285Q2.4817 2.204 2.6272 2.07213Q2.7727 1.94026 2.92449 1.81569Q3.07628 1.69112 3.234 1.57414Q3.39172 1.45717 3.55499 1.34807Q3.71826 1.23898 3.88669 1.13803Q4.05512 1.03708 4.2283 0.944512Q4.40148 0.851946 4.57899 0.76799Q4.7565 0.684033 4.93791 0.608888Q5.11933 0.533742 5.30422 0.467589Q5.4891 0.401436 5.67701 0.344434Q5.86492 0.287433 6.0554 0.23972Q6.24588 0.192007 6.43847 0.153699Q6.63106 0.11539 6.8253 0.0865771Q7.01954 0.0577644 7.21496 0.0385174Q7.41038 0.0192703 7.60651 0.00963514Q7.80264 0 7.999 0L7.999 0Z" id="Rectangle-6" fill="#FFFFFF" fill-rule="evenodd" stroke="none" />
  </g>
</svg>